<svg width="500" height="284" viewBox="0 0 500 284" fill="none" xmlns="http://www.w3.org/2000/svg">
<rect x="175" y="264" width="150" height="20" rx="10" fill="#FABB09"/>
<rect width="60" height="15" rx="7.5" transform="matrix(-1 0 0 1 147 143)" fill="#FABB09"/>
<path d="M154.435 124.569C155.852 120.676 153.845 116.373 149.952 114.956L107.666 99.5651C103.774 98.1484 99.47 100.155 98.0533 104.048V104.048C96.6366 107.94 98.6435 112.244 102.536 113.66L144.822 129.051C148.714 130.468 153.018 128.461 154.435 124.569V124.569Z" fill="#FABB09"/>
<path d="M169.784 98.3126C172.446 95.1395 172.032 90.4088 168.859 87.7463L134.387 58.8209C131.214 56.1584 126.483 56.5722 123.821 59.7453V59.7453C121.158 62.9184 121.572 67.649 124.745 70.3115L159.217 99.237C162.39 101.9 167.121 101.486 169.784 98.3126V98.3126Z" fill="#FABB09"/>
<path d="M198.495 72.7115C202.082 70.6404 203.311 66.0535 201.24 62.4663L178.74 23.4952C176.669 19.908 172.082 18.6789 168.495 20.75V20.75C164.908 22.821 163.679 27.408 165.75 30.9952L188.25 69.9663C190.321 73.5535 194.908 74.7826 198.495 72.7115V72.7115Z" fill="#FABB09"/>
<path d="M228.805 60.3908C232.884 59.6716 235.608 55.7816 234.889 51.7024L227.074 7.38606C226.355 3.30686 222.465 0.583094 218.386 1.30237V1.30237C214.307 2.02164 211.583 5.91158 212.302 9.99079L220.117 54.3071C220.836 58.3863 224.726 61.1101 228.805 60.3908V60.3908Z" fill="#FABB09"/>
<rect x="354.191" y="143" width="60" height="15" rx="7.5" fill="#FABB09"/>
<path d="M346.756 124.569C345.339 120.676 347.346 116.373 351.239 114.956L393.525 99.565C397.417 98.1483 401.721 100.155 403.138 104.048V104.048C404.554 107.94 402.548 112.244 398.655 113.66L356.369 129.051C352.477 130.468 348.173 128.461 346.756 124.569V124.569Z" fill="#FABB09"/>
<path d="M331.407 98.3125C328.745 95.1394 329.159 90.4087 332.332 87.7462L366.804 58.8208C369.977 56.1583 374.708 56.5722 377.37 59.7452V59.7452C380.033 62.9183 379.619 67.6489 376.446 70.3115L341.974 99.2369C338.801 101.899 334.07 101.486 331.407 98.3125V98.3125Z" fill="#FABB09"/>
<path d="M302.696 72.7114C299.109 70.6403 297.88 66.0534 299.951 62.4662L322.451 23.4951C324.522 19.9079 329.109 18.6788 332.696 20.7499V20.7499C336.283 22.8209 337.512 27.4079 335.441 30.9951L312.941 69.9662C310.87 73.5534 306.283 74.7825 302.696 72.7114V72.7114Z" fill="#FABB09"/>
<path d="M268.386 60.3908C264.307 59.6716 261.583 55.7816 262.302 51.7024L270.117 7.38606C270.836 3.30686 274.726 0.583094 278.805 1.30237V1.30237C282.884 2.02164 285.608 5.91158 284.889 9.99079L277.074 54.3071C276.355 58.3863 272.465 61.1101 268.386 60.3908V60.3908Z" fill="#FABB09"/>
<rect y="168" width="500" height="20" rx="10" fill="#FABB09"/>
<rect x="75" y="216" width="350" height="20" rx="10" fill="#FABB09"/>
<path d="M342.388 129.732C347.413 141.864 350 154.868 350 168H330C330 157.494 327.931 147.091 323.91 137.385C319.89 127.679 313.997 118.86 306.569 111.431C299.14 104.003 290.321 98.11 280.615 94.0896C270.909 90.0693 260.506 88 250 88C239.494 88 229.091 90.0693 219.385 94.0896C209.679 98.11 200.86 104.003 193.431 111.431C186.003 118.86 180.11 127.679 176.09 137.385C172.069 147.091 170 157.494 170 168H150C150 154.868 152.587 141.864 157.612 129.732C162.638 117.599 170.003 106.575 179.289 97.2893C188.575 88.0035 199.599 80.6375 211.732 75.612C223.864 70.5866 236.868 68 250 68C263.132 68 276.136 70.5866 288.268 75.612C300.401 80.6375 311.425 88.0035 320.711 97.2893C329.997 106.575 337.362 117.599 342.388 129.732Z" fill="#FABB09"/>
</svg>
